<?xml version="1.0" encoding="UTF-8" standalone="no"?>
<svg
   xmlns:dc="http://purl.org/dc/elements/1.1/"
   xmlns:cc="http://creativecommons.org/ns#"
   xmlns:rdf="http://www.w3.org/1999/02/22-rdf-syntax-ns#"
   xmlns:svg="http://www.w3.org/2000/svg"
   xmlns="http://www.w3.org/2000/svg"
   xmlns:sodipodi="http://sodipodi.sourceforge.net/DTD/sodipodi-0.dtd"
   xmlns:inkscape="http://www.inkscape.org/namespaces/inkscape"
   inkscape:version="1.0 (4035a4f, 2020-05-01)"
   sodipodi:docname="undraw_to_the_moon_v1mv_grouped_sky.svg"
   version="1.1"
   viewBox="0 0 926 749"
   height="749"
   width="926"
   data-name="Layer 1"
   id="e4da07c6-3f45-486e-a553-879e7f222c67">
  <metadata
     id="metadata427">
    <rdf:RDF>
      <cc:Work
         rdf:about="">
        <dc:format>image/svg+xml</dc:format>
        <dc:type
           rdf:resource="http://purl.org/dc/dcmitype/StillImage" />
        <dc:title>to_the_moon</dc:title>
      </cc:Work>
    </rdf:RDF>
  </metadata>
  <defs
     id="defs425" />
  <sodipodi:namedview
     inkscape:current-layer="e4da07c6-3f45-486e-a553-879e7f222c67"
     inkscape:window-maximized="1"
     inkscape:window-y="27"
     inkscape:window-x="0"
     inkscape:cy="406.11395"
     inkscape:cx="845.46008"
     inkscape:zoom="0.80434576"
     showgrid="false"
     id="namedview423"
     inkscape:window-height="623"
     inkscape:window-width="1280"
     inkscape:pageshadow="2"
     inkscape:pageopacity="0"
     guidetolerance="10"
     gridtolerance="10"
     objecttolerance="10"
     borderopacity="1"
     bordercolor="#666666"
     pagecolor="#ffffff" />
  <title
     id="title320">to_the_moon</title>
  <g
     transform="translate(-188.05127,18.63167)"
     id="g463">
    <rect
       x="676.99707"
       y="230.68916"
       width="2.8744299"
       height="58.063419"
       fill="#e6e6e6"
       id="rect370" />
    <polygon
       points="600.825,463.805 600.825,460.356 605.424,459.206 624.97,423.563 611.748,385.046 585.303,445.984 590.477,454.607 588.752,457.481 "
       fill="#e6e6e6"
       id="polygon372" />
    <path
       d="m 728.05172,532.40654 c 0,0 -19.5461,30.46892 2.29954,35.068 21.84564,4.59908 4.0242,-32.19358 4.0242,-32.19358 z"
       transform="translate(-137,-75.5)"
       fill="#e6e6e6"
       id="path374" />
    <path
       d="m 756.2211,518.60929 -6.89862,22.42053 -2.87443,28.74426 -5.174,10.34794 5.74885,46.56571 9.19816,9.19816 4.0242,45.99083 v 20.69587 l 10.92282,18.97121 -14.06578,19.96434 a 6.36092,6.36092 0 0 0 4.99044,10.03088 c 3.10539,0.0815 7.19907,-0.79588 12.52465,-3.55049 16.67168,-8.62328 16.09679,-16.67168 16.09679,-16.67168 0,0 10.34794,0 10.92282,-8.04839 0.57488,-8.04839 -6.32374,-65.53693 -6.32374,-65.53693 l -6.32373,-24.72006 v -67.26159 h 2.29954 l 1.14977,57.48854 5.174,21.27075 0.57488,9.19817 7.47351,91.98165 c 0,0 33.34335,9.19816 35.068,1.72465 1.72465,-7.47351 -12.64747,-12.07259 -12.64747,-12.07259 l 8.62328,-16.67167 V 686.4758 l -2.87443,-6.89862 -5.174,-46.56571 8.62328,-9.19817 4.59908,-5.74885 v -45.99083 l -5.74885,-17.82144 -1.72465,-14.947 -9.19817,-22.99541 c 0,0 -41.96659,-13.79727 -68.9862,2.29952 z"
       transform="translate(-137,-75.5)"
       fill="#ffffff"
       id="path376" />
    <path
       d="m 830.95619,388.68521 a 43.69128,43.69128 0 1 1 -78.75928,-26.05956 l 0.0115,-0.0115 a 43.6871,43.6871 0 0 1 78.74777,26.07107 z"
       transform="translate(-137,-75.5)"
       fill="#ffde63"
       id="path378" />
    <g
       opacity="0.1"
       id="g382">
      <path
         d="m 824.7474,370.57057 -3.56426,20.41418 c -26.784,-69.52663 -69.38863,-26.81841 -70.1245,-26.07107 a 43.69088,43.69088 0 0 1 73.68876,5.65689 z"
         transform="translate(-137,-75.5)"
         id="path380" />
    </g>
    <path
       d="m 825.89717,368.271 -3.56426,20.41418 c -26.784,-69.52663 -69.38862,-26.81841 -70.12449,-26.07107 a 43.69087,43.69087 0 0 1 73.68875,5.65689 z"
       transform="translate(-137,-75.5)"
       fill="#ffffff"
       id="path384" />
    <path
       d="m 819.90787,359.65262 5.9893,20.79027 c 0,0 -12.4326,37.26348 -70.086,38.56225 l -1.88957,5.323 -6.32374,1.72466 -2.87442,12.07259 8.04839,76.45974 c 0,0 -3.44931,7.47351 2.29954,6.89863 0,0 37.94243,-12.64748 70.7109,-1.14977 0,0 6.89862,2.87442 5.174,-3.44932 0,0 22.99542,-14.37213 21.27076,-29.31915 -1.72466,-14.94702 1.72466,-84.50814 1.72466,-84.50814 0,0 3.44931,-20.121 -6.89863,-24.72006 -6e-5,-4e-5 -15.19806,-21.27257 -27.14519,-18.6847 z"
       transform="translate(-137,-75.5)"
       fill="#ffffff"
       id="path386" />
    <path
       d="m 807.30443,504.91751 c 0,0 -36.01836,3.61713 -26.04794,23.59148 9.97042,19.97435 27.725,-16.85061 27.725,-16.85061 z"
       transform="translate(-137,-75.5)"
       fill="#e6e6e6"
       id="path388" />
    <path
       d="m 825.78223,415.70482 c 0,0 -6.32374,7.47351 -4.0242,19.5461 2.29954,12.07259 10.92282,39.0922 10.92282,39.0922 L 802.21193,502.5125 811.41009,515.16 852.80184,493.88924 862,488.14037 v 0 A 238.50666,238.50666 0 0 0 845.10813,420.5 l -1.50446,-3.64543 c 0,0 -10.92282,-4.59906 -17.82144,-1.14975 z"
       transform="translate(-137,-75.5)"
       fill="#e6e6e6"
       id="path390" />
    <circle
       cx="685.90778"
       cy="309.16101"
       r="10.63538"
       fill="#e6e6e6"
       id="circle392" />
    <circle
       cx="678.43427"
       cy="230.40173"
       r="7.7609501"
       fill="#e6e6e6"
       id="circle394" />
    <polygon
       points="642.822,296.322 641,296.322 641,296.678 642.822,296.678 642.822,298.5 643.178,298.5 643.178,296.678 645,296.678 645,296.322 643.178,296.322 643.178,294.5 642.822,294.5 "
       fill="#f2f2f2"
       id="polygon398" />
    <polygon
       points="624.822,313.322 623,313.322 623,313.678 624.822,313.678 624.822,315.5 625.178,315.5 625.178,313.678 627,313.678 627,313.322 625.178,313.322 625.178,311.5 624.822,311.5 "
       fill="#f2f2f2"
       id="polygon400" />
  </g>
  <g
     transform="translate(0.72691,-147.68311)"
     id="g485">
    <circle
       cx="237.90495"
       cy="226.93549"
       r="83.979156"
       fill="#ff6584"
       id="circle322" />
    <path
       d="m 1063,276.46 v 220.88 a 325.99128,325.99128 0 0 1 -326,326 H 137 V 602.46 c 0,-118.03 62.73,-221.42 156.68,-278.63 a 323.57742,323.57742 0 0 1 50.88,-25.18 320.09024,320.09024 0 0 1 31.76,-10.53 c 0.21,-0.07 0.43,-0.13 0.64,-0.18 q 4.77,-1.305 9.6,-2.46 c 0.18,-0.05 0.35,-0.09 0.53,-0.13 a 326.11582,326.11582 0 0 1 60.47,-8.53 c 2.41,-0.11005 4.82,-0.2 7.25,-0.25 0.87,-0.03 1.75,-0.05 2.64,-0.05 q 2.76,-0.06 5.55,-0.06 z"
       transform="translate(-137,-75.5)"
       fill="#3f3d56"
       id="path324" />
    <circle
       cx="138"
       cy="290"
       r="7"
       fill="#f2f2f2"
       id="circle344" />
    <circle
       cx="740"
       cy="564"
       r="7"
       fill="#f2f2f2"
       id="circle346" />
    <circle
       cx="410"
       cy="339"
       r="7"
       fill="#f2f2f2"
       id="circle348" />
    <circle
       cx="757"
       cy="297"
       r="4"
       fill="#ff6584"
       id="circle350" />
    <circle
       cx="154"
       cy="497"
       r="4"
       fill="#ff6584"
       id="circle352" />
    <polygon
       points="91.822,579.5 91.822,581.322 90,581.322 90,581.678 91.822,581.678 91.822,583.5 92.178,583.5 92.178,581.678 94,581.678 94,581.322 92.178,581.322 92.178,579.5 "
       fill="#f2f2f2"
       id="polygon354" />
    <polygon
       points="676.822,431.5 676.822,433.322 675,433.322 675,433.678 676.822,433.678 676.822,435.5 677.178,435.5 677.178,433.678 679,433.678 679,433.322 677.178,433.322 677.178,431.5 "
       fill="#f2f2f2"
       id="polygon356" />
    <polygon
       points="827.822,401.5 827.822,403.322 826,403.322 826,403.678 827.822,403.678 827.822,405.5 828.178,405.5 828.178,403.678 830,403.678 830,403.322 828.178,403.322 828.178,401.5 "
       fill="#f2f2f2"
       id="polygon358" />
    <polygon
       points="502.822,481.5 502.822,483.322 501,483.322 501,483.678 502.822,483.678 502.822,485.5 503.178,485.5 503.178,483.678 505,483.678 505,483.322 503.178,483.322 503.178,481.5 "
       fill="#f2f2f2"
       id="polygon360" />
    <polygon
       points="783.822,491.5 783.822,493.322 782,493.322 782,493.678 783.822,493.678 783.822,495.5 784.178,495.5 784.178,493.678 786,493.678 786,493.322 784.178,493.322 784.178,491.5 "
       fill="#f2f2f2"
       id="polygon362" />
    <polygon
       points="444.822,534.5 444.822,536.322 443,536.322 443,536.678 444.822,536.678 444.822,538.5 445.178,538.5 445.178,536.678 447,536.678 447,536.322 445.178,536.322 445.178,534.5 "
       fill="#f2f2f2"
       id="polygon364" />
    <polygon
       points="572.822,536.5 572.822,538.322 571,538.322 571,538.678 572.822,538.678 572.822,540.5 573.178,540.5 573.178,538.678 575,538.678 575,538.322 573.178,538.322 573.178,536.5 "
       fill="#f2f2f2"
       id="polygon366" />
    <polygon
       points="93.822,366.5 93.822,368.322 92,368.322 92,368.678 93.822,368.678 93.822,370.5 94.178,370.5 94.178,368.678 96,368.678 96,368.322 94.178,368.322 94.178,366.5 "
       fill="#f2f2f2"
       id="polygon368" />
    <polygon
       points="478.822,350.5 478.822,352.322 477,352.322 477,352.678 478.822,352.678 478.822,354.5 479.178,354.5 479.178,352.678 481,352.678 481,352.322 479.178,352.322 479.178,350.5 "
       fill="#f2f2f2"
       id="polygon396" />
    <circle
       cx="556"
       cy="267"
       r="4"
       fill="#f2f2f2"
       id="circle402" />
    <path
       d="m 983.01,276.46 h -2 A 82.08452,82.08452 0 0 0 1063,358 v -2 a 80.07862,80.07862 0 0 1 -79.99,-79.54 z"
       transform="translate(-137,-75.5)"
       fill="#ffde63"
       id="path416" />
    <path
       d="m 946.01,276.46 h -2 A 119.11543,119.11543 0 0 0 1063,395 v -2 A 117.12247,117.12247 0 0 1 946.01,276.46 Z"
       transform="translate(-137,-75.5)"
       fill="#ffde63"
       id="path418" />
    <path
       d="m 908,276.46 h -2 C 906.25,362.82 976.58,433 1063,433 v -2 C 977.68,431 908.25,361.72 908,276.46 Z"
       transform="translate(-137,-75.5)"
       fill="#ffde63"
       id="path420" />
  </g>
</svg>
