<?xml version="1.0" encoding="UTF-8" standalone="no"?>
<svg
   xmlns:dc="http://purl.org/dc/elements/1.1/"
   xmlns:cc="http://creativecommons.org/ns#"
   xmlns:rdf="http://www.w3.org/1999/02/22-rdf-syntax-ns#"
   xmlns:svg="http://www.w3.org/2000/svg"
   xmlns="http://www.w3.org/2000/svg"
   xmlns:sodipodi="http://sodipodi.sourceforge.net/DTD/sodipodi-0.dtd"
   xmlns:inkscape="http://www.inkscape.org/namespaces/inkscape"
   id="e4da07c6-3f45-486e-a553-879e7f222c67"
   data-name="Layer 1"
   width="926"
   height="749"
   viewBox="0 0 926 749"
   version="1.1"
   sodipodi:docname="undraw_to_the_moon_v1mv_astronaut.svg"
   inkscape:version="1.0 (4035a4f, 2020-05-01)">
  <metadata
     id="metadata427">
    <rdf:RDF>
      <cc:Work
         rdf:about="">
        <dc:format>image/svg+xml</dc:format>
        <dc:type
           rdf:resource="http://purl.org/dc/dcmitype/StillImage" />
        <dc:title>to_the_moon</dc:title>
      </cc:Work>
    </rdf:RDF>
  </metadata>
  <defs
     id="defs425" />
  <sodipodi:namedview
     inkscape:document-rotation="0"
     pagecolor="#ffffff"
     bordercolor="#666666"
     borderopacity="1"
     objecttolerance="10"
     gridtolerance="10"
     guidetolerance="10"
     inkscape:pageopacity="0"
     inkscape:pageshadow="2"
     inkscape:window-width="1280"
     inkscape:window-height="623"
     id="namedview423"
     showgrid="false"
     inkscape:zoom="0.80434576"
     inkscape:cx="497.35108"
     inkscape:cy="207.19453"
     inkscape:window-x="0"
     inkscape:window-y="27"
     inkscape:window-maximized="1"
     inkscape:current-layer="e4da07c6-3f45-486e-a553-879e7f222c67" />
  <title
     id="title320">to_the_moon</title>
  <g
     id="g463"
     transform="translate(-72.434053,-75.774257)">
    <rect
       id="rect370"
       fill="#e6e6e6"
       height="58.063419"
       width="2.8744299"
       y="230.68916"
       x="676.99707" />
    <polygon
       id="polygon372"
       fill="#e6e6e6"
       points="605.424,459.206 624.97,423.563 611.748,385.046 585.303,445.984 590.477,454.607 588.752,457.481 600.825,463.805 600.825,460.356 " />
    <path
       id="path374"
       fill="#e6e6e6"
       transform="translate(-137,-75.5)"
       d="m 728.05172,532.40654 c 0,0 -19.5461,30.46892 2.29954,35.068 21.84564,4.59908 4.0242,-32.19358 4.0242,-32.19358 z" />
    <path
       id="path376"
       fill="#ffffff"
       transform="translate(-137,-75.5)"
       d="m 756.2211,518.60929 -6.89862,22.42053 -2.87443,28.74426 -5.174,10.34794 5.74885,46.56571 9.19816,9.19816 4.0242,45.99083 v 20.69587 l 10.92282,18.97121 -14.06578,19.96434 a 6.36092,6.36092 0 0 0 4.99044,10.03088 c 3.10539,0.0815 7.19907,-0.79588 12.52465,-3.55049 16.67168,-8.62328 16.09679,-16.67168 16.09679,-16.67168 0,0 10.34794,0 10.92282,-8.04839 0.57488,-8.04839 -6.32374,-65.53693 -6.32374,-65.53693 l -6.32373,-24.72006 v -67.26159 h 2.29954 l 1.14977,57.48854 5.174,21.27075 0.57488,9.19817 7.47351,91.98165 c 0,0 33.34335,9.19816 35.068,1.72465 1.72465,-7.47351 -12.64747,-12.07259 -12.64747,-12.07259 l 8.62328,-16.67167 V 686.4758 l -2.87443,-6.89862 -5.174,-46.56571 8.62328,-9.19817 4.59908,-5.74885 v -45.99083 l -5.74885,-17.82144 -1.72465,-14.947 -9.19817,-22.99541 c 0,0 -41.96659,-13.79727 -68.9862,2.29952 z" />
    <path
       id="path378"
       fill="#ffde63"
       transform="translate(-137,-75.5)"
       d="m 830.95619,388.68521 a 43.69128,43.69128 0 1 1 -78.75928,-26.05956 l 0.0115,-0.0115 a 43.6871,43.6871 0 0 1 78.74777,26.07107 z" />
    <g
       id="g382"
       opacity="0.1">
      <path
         id="path380"
         transform="translate(-137,-75.5)"
         d="m 824.7474,370.57057 -3.56426,20.41418 c -26.784,-69.52663 -69.38863,-26.81841 -70.1245,-26.07107 a 43.69088,43.69088 0 0 1 73.68876,5.65689 z" />
    </g>
    <path
       id="path384"
       fill="#ffffff"
       transform="translate(-137,-75.5)"
       d="m 825.89717,368.271 -3.56426,20.41418 c -26.784,-69.52663 -69.38862,-26.81841 -70.12449,-26.07107 a 43.69087,43.69087 0 0 1 73.68875,5.65689 z" />
    <path
       id="path386"
       fill="#ffffff"
       transform="translate(-137,-75.5)"
       d="m 819.90787,359.65262 5.9893,20.79027 c 0,0 -12.4326,37.26348 -70.086,38.56225 l -1.88957,5.323 -6.32374,1.72466 -2.87442,12.07259 8.04839,76.45974 c 0,0 -3.44931,7.47351 2.29954,6.89863 0,0 37.94243,-12.64748 70.7109,-1.14977 0,0 6.89862,2.87442 5.174,-3.44932 0,0 22.99542,-14.37213 21.27076,-29.31915 -1.72466,-14.94702 1.72466,-84.50814 1.72466,-84.50814 0,0 3.44931,-20.121 -6.89863,-24.72006 -6e-5,-4e-5 -15.19806,-21.27257 -27.14519,-18.6847 z" />
    <path
       id="path388"
       fill="#e6e6e6"
       transform="translate(-137,-75.5)"
       d="m 807.30443,504.91751 c 0,0 -36.01836,3.61713 -26.04794,23.59148 9.97042,19.97435 27.725,-16.85061 27.725,-16.85061 z" />
    <path
       id="path390"
       fill="#e6e6e6"
       transform="translate(-137,-75.5)"
       d="m 825.78223,415.70482 c 0,0 -6.32374,7.47351 -4.0242,19.5461 2.29954,12.07259 10.92282,39.0922 10.92282,39.0922 L 802.21193,502.5125 811.41009,515.16 852.80184,493.88924 862,488.14037 v 0 A 238.50666,238.50666 0 0 0 845.10813,420.5 l -1.50446,-3.64543 c 0,0 -10.92282,-4.59906 -17.82144,-1.14975 z" />
    <circle
       id="circle392"
       fill="#e6e6e6"
       r="10.63538"
       cy="309.16101"
       cx="685.90778" />
    <circle
       id="circle394"
       fill="#e6e6e6"
       r="7.7609501"
       cy="230.40173"
       cx="678.43427" />
    <polygon
       id="polygon398"
       fill="#f2f2f2"
       points="641,296.678 642.822,296.678 642.822,298.5 643.178,298.5 643.178,296.678 645,296.678 645,296.322 643.178,296.322 643.178,294.5 642.822,294.5 642.822,296.322 641,296.322 " />
    <polygon
       id="polygon400"
       fill="#f2f2f2"
       points="623,313.678 624.822,313.678 624.822,315.5 625.178,315.5 625.178,313.678 627,313.678 627,313.322 625.178,313.322 625.178,311.5 624.822,311.5 624.822,313.322 623,313.322 " />
  </g>
</svg>
